<?xml version="1.0" encoding="UTF-8" standalone="no"?>
<!-- Created with Inkscape (http://www.inkscape.org/) -->

<svg
   xmlns:osb="http://www.openswatchbook.org/uri/2009/osb"
   xmlns:dc="http://purl.org/dc/elements/1.1/"
   xmlns:cc="http://creativecommons.org/ns#"
   xmlns:rdf="http://www.w3.org/1999/02/22-rdf-syntax-ns#"
   xmlns:svg="http://www.w3.org/2000/svg"
   xmlns="http://www.w3.org/2000/svg"
   xmlns:xlink="http://www.w3.org/1999/xlink"
   xmlns:sodipodi="http://sodipodi.sourceforge.net/DTD/sodipodi-0.dtd"
   xmlns:inkscape="http://www.inkscape.org/namespaces/inkscape"
   width="176.8226mm"
   height="60.910313mm"
   viewBox="0 0 626.53678 215.82396"
   id="svg4907"
   version="1.1"
   inkscape:version="0.91 r13725"
   sodipodi:docname="logo-ng.svg">
  <defs
     id="defs4909">
    <linearGradient
       id="linearGradient7006"
       osb:paint="solid">
      <stop
         style="stop-color:#000000;stop-opacity:0;"
         offset="0"
         id="stop7008" />
    </linearGradient>
    <linearGradient
       inkscape:collect="always"
       xlink:href="#linearGradient7006"
       id="linearGradient7012"
       x1="141.82063"
       y1="424.12567"
       x2="753.20441"
       y2="424.12567"
       gradientUnits="userSpaceOnUse" />
  </defs>
  <sodipodi:namedview
     id="base"
     pagecolor="#ffffff"
     bordercolor="#666666"
     borderopacity="1.0"
     inkscape:pageopacity="0.0"
     inkscape:pageshadow="2"
     inkscape:zoom="0.35"
     inkscape:cx="-90.392565"
     inkscape:cy="-167.01287"
     inkscape:document-units="px"
     inkscape:current-layer="layer1"
     showgrid="false"
     inkscape:window-width="1280"
     inkscape:window-height="743"
     inkscape:window-x="0"
     inkscape:window-y="0"
     inkscape:window-maximized="1"
     fit-margin-top="0.3"
     fit-margin-left="0"
     fit-margin-right="0"
     fit-margin-bottom="0" />
  <metadata
     id="metadata4912">
    <rdf:RDF>
      <cc:Work
         rdf:about="">
        <dc:format>image/svg+xml</dc:format>
        <dc:type
           rdf:resource="http://purl.org/dc/dcmitype/StillImage" />
        <dc:title></dc:title>
      </cc:Work>
    </rdf:RDF>
  </metadata>
  <g
     inkscape:label="Layer 1"
     inkscape:groupmode="layer"
     id="layer1"
     transform="translate(-41.106852,-35.239659)">
    <g
       style="font-style:normal;font-weight:normal;font-size:180px;line-height:1000%;font-family:sans-serif;letter-spacing:0px;word-spacing:0px;opacity:1;fill:#000000;fill-opacity:1;stroke:none;stroke-width:1px;stroke-linecap:butt;stroke-linejoin:miter;stroke-opacity:1"
       id="flowRoot5479"
       transform="translate(2.3547635e-7,-334.28572)" />
    <g
       transform="matrix(0.88699317,0,0,1.1274044,2.3547635e-7,-334.28572)"
       style="font-style:normal;font-weight:normal;font-size:202.93278503px;line-height:0%;font-family:sans-serif;letter-spacing:0px;word-spacing:0px;opacity:1;fill:#000000;fill-opacity:1;stroke:none;stroke-width:1px;stroke-linecap:butt;stroke-linejoin:miter;stroke-opacity:1"
       id="text5487">
      <path
         d="m 142.32064,476.98926 0,-147.9388 92.05301,0 0,16.84501 -72.03718,0 0,131.09379 -20.01583,0 z"
         style="font-style:normal;font-variant:normal;font-weight:500;font-stretch:normal;font-family:sans-serif;-inkscape-font-specification:'sans-serif Medium';fill:#000000;fill-opacity:1;stroke:none;stroke-opacity:1"
         id="path4242"
         inkscape:connector-curvature="0" />
      <path
         d="m 308.19441,378.79278 q -14.66506,0 -23.18666,11.49424 -8.52159,11.39515 -8.52159,31.31189 0,19.91674 8.42251,31.41098 8.52159,11.39515 23.28574,11.39515 14.56598,0 23.08757,-11.49424 8.52159,-11.49424 8.52159,-31.31189 0,-19.71857 -8.52159,-31.21281 -8.52159,-11.59332 -23.08757,-11.59332 z m 0,-15.45778 q 23.78119,0 37.35628,15.45778 13.57509,15.45777 13.57509,42.80613 0,27.24928 -13.57509,42.80613 -13.57509,15.45778 -37.35628,15.45778 -23.88027,0 -37.45537,-15.45778 -13.476,-15.55685 -13.476,-42.80613 0,-27.34836 13.476,-42.80613 13.5751,-15.45778 37.45537,-15.45778 z"
         style="font-style:normal;font-variant:normal;font-weight:500;font-stretch:normal;font-family:sans-serif;-inkscape-font-specification:'sans-serif Medium';fill:#000000;fill-opacity:1;stroke:none;stroke-opacity:1"
         id="path4244"
         inkscape:connector-curvature="0" />
      <path
         d="m 406.88632,460.34243 0,58.85843 -18.33133,0 0,-153.19047 18.33133,0 0,16.845 q 5.74712,-9.90882 14.46689,-14.66506 8.81886,-4.85533 21.00671,-4.85533 20.21401,0 32.79822,16.05231 12.6833,16.0523 12.6833,42.2116 0,26.1593 -12.6833,42.2116 -12.58421,16.05231 -32.79822,16.05231 -12.18785,0 -21.00671,-4.75624 -8.71977,-4.85533 -14.46689,-14.76415 z m 62.02926,-38.74352 q 0,-20.11492 -8.32341,-31.51007 -8.22433,-11.49424 -22.69122,-11.49424 -14.46689,0 -22.7903,11.49424 -8.22433,11.39515 -8.22433,31.51007 0,20.11492 8.22433,31.60916 8.32341,11.39515 22.7903,11.39515 14.46689,0 22.69122,-11.39515 8.32341,-11.49424 8.32341,-31.60916 z"
         style="font-style:normal;font-variant:normal;font-weight:500;font-stretch:normal;font-family:sans-serif;-inkscape-font-specification:'sans-serif Medium';fill:#000000;fill-opacity:1;stroke:none;stroke-opacity:1"
         id="path4246"
         inkscape:connector-curvature="0" />
      <path
         d="m 561.06768,378.79278 q -14.66507,0 -23.18666,11.49424 -8.52159,11.39515 -8.52159,31.31189 0,19.91674 8.4225,31.41098 8.5216,11.39515 23.28575,11.39515 14.56598,0 23.08757,-11.49424 8.52159,-11.49424 8.52159,-31.31189 0,-19.71857 -8.52159,-31.21281 -8.52159,-11.59332 -23.08757,-11.59332 z m 0,-15.45778 q 23.78118,0 37.35628,15.45778 13.57509,15.45777 13.57509,42.80613 0,27.24928 -13.57509,42.80613 -13.5751,15.45778 -37.35628,15.45778 -23.88028,0 -37.45537,-15.45778 -13.476,-15.55685 -13.476,-42.80613 0,-27.34836 13.476,-42.80613 Q 537.1874,363.335 561.06768,363.335 Z"
         style="font-style:normal;font-variant:normal;font-weight:500;font-stretch:normal;font-family:sans-serif;-inkscape-font-specification:'sans-serif Medium';fill:#000000;fill-opacity:1;stroke:none;stroke-opacity:1"
         id="path4248"
         inkscape:connector-curvature="0" />
      <path
         d="m 666.89397,462.42328 52.91314,0 0,-81.84692 -38.34716,0 0,13.87236 q 0,40.82437 -11.69242,62.62379 l -2.87356,5.35077 z m -26.45657,0 q 9.01703,-3.96353 12.98056,-12.38604 9.71065,-20.90762 9.71065,-63.02014 l 0,-21.00671 75.00983,0 0,96.41289 14.56597,0 0,42.60796 -14.56597,0 0,-28.04198 -89.97215,0 0,28.04198 -14.56598,0 0,-42.60796 6.83709,0 z"
         style="font-style:normal;font-variant:normal;font-weight:500;font-stretch:normal;font-family:sans-serif;-inkscape-font-specification:'sans-serif Medium';fill:#000000;fill-opacity:1;stroke:none;stroke-opacity:1"
         id="path4250"
         inkscape:connector-curvature="0" />
    </g>
    <g
       transform="matrix(-0.00421487,-0.39636781,0.55349297,-0.00301835,-164.86384,244.65277)"
       style="font-style:normal;font-variant:normal;font-weight:normal;font-stretch:normal;font-size:180px;line-height:100%;font-family:sans-serif;-inkscape-font-specification:sans-serif;letter-spacing:0px;word-spacing:0px;opacity:1;fill:#000000;fill-opacity:1;stroke:none;stroke-width:0.21349227;stroke-linecap:butt;stroke-linejoin:miter;stroke-miterlimit:4;stroke-dasharray:none;stroke-opacity:1"
       id="flowRoot5491">
      <path
         d="m 106.23828,376.10219 17.75391,0 0,53.78906 64.51172,0 0,-53.78906 17.7539,0 0,131.2207 -17.7539,0 0,-62.49023 -64.51172,0 0,62.49023 -17.75391,0 0,-131.2207 z"
         style="font-style:normal;font-variant:normal;font-weight:normal;font-stretch:normal;font-family:sans-serif;-inkscape-font-specification:sans-serif;fill:#000000;fill-opacity:1;stroke:none;stroke-width:0.21349227;stroke-miterlimit:4;stroke-dasharray:none;stroke-opacity:1"
         id="path4253"
         inkscape:connector-curvature="0" />
      <path
         d="m 285.44727,393.59243 -24.08204,65.30273 48.25196,0 -24.16992,-65.30273 z m -10.01954,-17.49024 20.12696,0 50.00976,131.2207 -18.45703,0 -11.95312,-33.6621 -59.15039,0 -11.95313,33.6621 -18.7207,0 50.09765,-131.2207 z"
         style="font-style:normal;font-variant:normal;font-weight:normal;font-stretch:normal;font-family:sans-serif;-inkscape-font-specification:sans-serif;fill:#000000;fill-opacity:1;stroke:none;stroke-width:0.21349227;stroke-miterlimit:4;stroke-dasharray:none;stroke-opacity:1"
         id="path4255"
         inkscape:connector-curvature="0" />
      <path
         d="m 452.08789,492.38149 51.94336,0 0,-116.2793 17.75391,0 0,131.2207 -157.14844,0 0,-131.2207 17.7539,0 0,116.2793 51.94336,0 0,-116.2793 17.75391,0 0,116.2793 z"
         style="font-style:normal;font-variant:normal;font-weight:normal;font-stretch:normal;font-family:sans-serif;-inkscape-font-specification:sans-serif;fill:#000000;fill-opacity:1;stroke:none;stroke-width:0.21349227;stroke-miterlimit:4;stroke-dasharray:none;stroke-opacity:1"
         id="path4257"
         inkscape:connector-curvature="0" />
    </g>
    <g
       transform="translate(138.0934,-622.49806)"
       inkscape:transform-center-x="-94.285715"
       inkscape:transform-center-y="-42.857142"
       style="font-style:normal;font-weight:normal;font-size:180px;line-height:0%;font-family:sans-serif;letter-spacing:0px;word-spacing:0px;opacity:1;fill:#000000;fill-opacity:1;stroke:none;stroke-width:1px;stroke-linecap:butt;stroke-linejoin:miter;stroke-opacity:1"
       id="flowRoot5499">
      <path
         d="m 116.76221,660.77945 0,24.60938 -4.06494,0 0,-21.3794 -13.11768,0 0,21.3794 -4.064942,0 0,-24.60938 21.247562,0 z"
         style="font-size:45px;line-height:100%;fill:#000000;fill-opacity:1;stroke:none;stroke-opacity:1"
         id="path4260"
         inkscape:connector-curvature="0" />
      <path
         d="m 129.02295,681.69742 0,13.05176 -4.06494,0 0,-33.96973 4.06494,0 0,3.73536 q 1.27441,-2.19727 3.20801,-3.25196 1.95556,-1.07666 4.6582,-1.07666 4.48242,0 7.27295,3.55957 2.8125,3.55957 2.8125,9.36035 0,5.80079 -2.8125,9.36036 -2.79053,3.55957 -7.27295,3.55957 -2.70264,0 -4.6582,-1.05469 -1.9336,-1.07666 -3.20801,-3.27393 z m 13.75488,-8.59131 q 0,-4.46044 -1.8457,-6.9873 -1.82373,-2.54883 -5.03174,-2.54883 -3.20801,0 -5.05371,2.54883 -1.82373,2.52686 -1.82373,6.9873 0,4.46045 1.82373,7.00928 1.8457,2.52686 5.05371,2.52686 3.20801,0 5.03174,-2.52686 1.8457,-2.54883 1.8457,-7.00928 z"
         style="font-size:45px;line-height:100%;fill:#000000;fill-opacity:1;stroke:none;stroke-opacity:1"
         id="path4262"
         inkscape:connector-curvature="0" />
      <path
         d="m 163.2124,663.61393 q -3.25195,0 -5.1416,2.54882 -1.88965,2.52686 -1.88965,6.94336 0,4.41651 1.86768,6.96534 1.88965,2.52685 5.16357,2.52685 3.22998,0 5.11963,-2.54883 1.88965,-2.54882 1.88965,-6.94336 0,-4.37255 -1.88965,-6.92138 -1.88965,-2.5708 -5.11963,-2.5708 z m 0,-3.42774 q 5.27344,0 8.28369,3.42774 3.01026,3.42773 3.01026,9.49218 0,6.04248 -3.01026,9.49219 -3.01025,3.42774 -8.28369,3.42774 -5.29541,0 -8.30566,-3.42774 -2.98828,-3.44971 -2.98828,-9.49219 0,-6.06445 2.98828,-9.49218 3.01025,-3.42774 8.30566,-3.42774 z"
         style="font-size:45px;line-height:100%;fill:#000000;fill-opacity:1;stroke:none;stroke-opacity:1"
         id="path4264"
         inkscape:connector-curvature="0" />
      <path
         d="m 202.23584,672.0734 0,1.97754 -18.58887,0 q 0.26367,4.1748 2.50489,6.37207 2.26318,2.17529 6.28418,2.17529 2.3291,0 4.50439,-0.57129 2.19727,-0.57129 4.35059,-1.71386 l 0,3.82324 q -2.1753,0.92285 -4.46045,1.40625 -2.28516,0.4834 -4.63623,0.4834 -5.88868,0 -9.33838,-3.42774 -3.42774,-3.42773 -3.42774,-9.27246 0,-6.04248 3.25196,-9.58008 3.27392,-3.55957 8.81103,-3.55957 4.96582,0 7.84424,3.20801 2.90039,3.18604 2.90039,8.6792 z m -4.04297,-1.18652 q -0.0439,-3.31788 -1.86767,-5.29541 -1.80176,-1.97754 -4.79004,-1.97754 -3.38379,0 -5.42725,1.91162 -2.02148,1.91162 -2.3291,5.3833 l 14.41406,-0.022 z"
         style="font-size:45px;line-height:100%;fill:#000000;fill-opacity:1;stroke:none;stroke-opacity:1"
         id="path4266"
         inkscape:connector-curvature="0" />
      <path
         d="m 208.71777,660.77945 4.021,0 0,11.55762 11.40381,-11.55762 4.96582,0 -9.4043,9.51416 10.61279,15.09522 -4.52636,0 -8.72315,-12.41455 -4.32861,4.39453 0,8.02002 -4.021,0 0,-24.60938 z"
         style="font-size:45px;line-height:100%;fill:#000000;fill-opacity:1;stroke:none;stroke-opacity:1"
         id="path4268"
         inkscape:connector-curvature="0" />
      <path
         d="m 233.10742,660.77945 23.57666,0 0,3.22998 -9.7998,0 0,21.3794 -3.97705,0 0,-21.3794 -9.79981,0 0,-3.22998 z"
         style="font-size:45px;line-height:100%;fill:#000000;fill-opacity:1;stroke:none;stroke-opacity:1"
         id="path4270"
         inkscape:connector-curvature="0" />
      <path
         d="m 262.06738,660.77945 4.06494,0 0,10.04151 13.11768,0 0,-10.04151 4.06494,0 0,24.60938 -4.06494,0 0,-11.33789 -13.11768,0 0,11.33789 -4.06494,0 0,-24.60938 z"
         style="font-size:45px;line-height:100%;fill:#000000;fill-opacity:1;stroke:none;stroke-opacity:1"
         id="path4272"
         inkscape:connector-curvature="0" />
      <path
         d="m 302.84863,673.01822 q -4.8999,0 -6.78955,1.12061 -1.88965,1.1206 -1.88965,3.82324 0,2.15332 1.40625,3.42774 1.42823,1.25244 3.86719,1.25244 3.36182,0 5.3833,-2.37305 2.04346,-2.39502 2.04346,-6.3501 l 0,-0.90088 -4.021,0 z m 8.06397,-1.66992 0,14.04053 -4.04297,0 0,-3.73535 q -1.38428,2.24121 -3.44971,3.31787 -2.06543,1.05469 -5.05371,1.05469 -3.7793,0 -6.02051,-2.10938 -2.21924,-2.13135 -2.21924,-5.69092 0,-4.15283 2.76856,-6.2622 2.79053,-2.10938 8.30566,-2.10938 l 5.66895,0 0,-0.39551 q 0,-2.79052 -1.8457,-4.30664 -1.82373,-1.53808 -5.14161,-1.53808 -2.10937,0 -4.10888,0.50537 -1.99951,0.50537 -3.84522,1.51611 l 0,-3.73535 q 2.21924,-0.85693 4.30664,-1.27441 2.08741,-0.43946 4.06494,-0.43946 5.33936,0 7.97608,2.76856 2.63672,2.76855 2.63672,8.39355 z"
         style="font-size:45px;line-height:100%;fill:#000000;fill-opacity:1;stroke:none;stroke-opacity:1"
         id="path4274"
         inkscape:connector-curvature="0" />
      <path
         d="m 323.32715,667.87662 q 0,1.82373 1.40625,2.85645 1.40625,1.03271 4.02099,1.03271 l 5.44922,0 0,-7.75635 -5.44922,0 q -2.61474,0 -4.02099,1.01075 -1.40625,1.01074 -1.40625,2.85644 z m -5.75684,17.51221 7.51465,-10.78858 q -2.54883,-0.57128 -4.24072,-2.06542 -1.6919,-1.51612 -1.6919,-4.65821 0,-3.55957 2.35108,-5.31738 2.37304,-1.77979 7.14111,-1.77979 l 9.62402,0 0,24.60938 -4.06494,0 0,-10.39307 -5.03174,0 -7.25097,10.39307 -4.35059,0 z"
         style="font-size:45px;line-height:100%;fill:#000000;fill-opacity:1;stroke:none;stroke-opacity:1"
         id="path4276"
         inkscape:connector-curvature="0" />
      <path
         d="m 360.50488,685.38883 0,-24.60938 17.3584,0 0,3.22998 -13.29346,0 0,21.3794 -4.06494,0 z"
         style="font-size:45px;line-height:100%;fill:#000000;fill-opacity:1;stroke:none;stroke-opacity:1"
         id="path4278"
         inkscape:connector-curvature="0" />
      <path
         d="m 388.2124,681.69742 0,13.05176 -4.06494,0 0,-33.96973 4.06494,0 0,3.73536 q 1.27442,-2.19727 3.20801,-3.25196 1.95557,-1.07666 4.6582,-1.07666 4.48243,0 7.27295,3.55957 2.8125,3.55957 2.8125,9.36035 0,5.80079 -2.8125,9.36036 -2.79052,3.55957 -7.27295,3.55957 -2.70263,0 -4.6582,-1.05469 -1.93359,-1.07666 -3.20801,-3.27393 z m 13.75489,-8.59131 q 0,-4.46044 -1.84571,-6.9873 -1.82373,-2.54883 -5.03174,-2.54883 -3.208,0 -5.05371,2.54883 -1.82373,2.52686 -1.82373,6.9873 0,4.46045 1.82373,7.00928 1.84571,2.52686 5.05371,2.52686 3.20801,0 5.03174,-2.52686 1.84571,-2.54883 1.84571,-7.00928 z"
         style="font-size:45px;line-height:100%;fill:#000000;fill-opacity:1;stroke:none;stroke-opacity:1"
         id="path4280"
         inkscape:connector-curvature="0" />
      <path
         d="m 423.10498,687.67399 q -1.71387,4.39453 -3.33984,5.73486 -1.62598,1.34033 -4.35059,1.34033 l -3.22998,0 0,-3.38379 2.37305,0 q 1.66992,0 2.59277,-0.79101 0.92285,-0.79102 2.04346,-3.73536 l 0.7251,-1.8457 -9.95362,-24.21387 4.28467,0 7.69043,19.24805 7.69043,-19.24805 4.28467,0 -10.81055,26.89454 z"
         style="font-size:45px;line-height:100%;fill:#000000;fill-opacity:1;stroke:none;stroke-opacity:1"
         id="path4282"
         inkscape:connector-curvature="0" />
      <path
         d="m 460.59033,660.77945 0,24.60938 -4.06494,0 0,-21.3794 -13.11768,0 0,21.3794 -4.06494,0 0,-24.60938 21.24756,0 z"
         style="font-size:45px;line-height:100%;fill:#000000;fill-opacity:1;stroke:none;stroke-opacity:1"
         id="path4284"
         inkscape:connector-curvature="0" />
      <path
         d="m 490.03369,660.77945 0,24.60938 -4.06494,0 0,-21.3794 -13.11768,0 0,21.3794 -4.06494,0 0,-24.60938 21.24756,0 z"
         style="font-size:45px;line-height:100%;fill:#000000;fill-opacity:1;stroke:none;stroke-opacity:1"
         id="path4286"
         inkscape:connector-curvature="0" />
      <path
         d="m 509.56738,673.01822 q -4.8999,0 -6.78955,1.12061 -1.88965,1.1206 -1.88965,3.82324 0,2.15332 1.40625,3.42774 1.42823,1.25244 3.86719,1.25244 3.36182,0 5.3833,-2.37305 2.04346,-2.39502 2.04346,-6.3501 l 0,-0.90088 -4.021,0 z m 8.06397,-1.66992 0,14.04053 -4.04297,0 0,-3.73535 q -1.38428,2.24121 -3.44971,3.31787 -2.06543,1.05469 -5.05371,1.05469 -3.7793,0 -6.02051,-2.10938 -2.21924,-2.13135 -2.21924,-5.69092 0,-4.15283 2.76856,-6.2622 2.79053,-2.10938 8.30566,-2.10938 l 5.66895,0 0,-0.39551 q 0,-2.79052 -1.8457,-4.30664 -1.82373,-1.53808 -5.14161,-1.53808 -2.10937,0 -4.10888,0.50537 -1.99951,0.50537 -3.84522,1.51611 l 0,-3.73535 q 2.21924,-0.85693 4.30664,-1.27441 2.08741,-0.43946 4.06494,-0.43946 5.33936,0 7.97608,2.76856 2.63672,2.76855 2.63672,8.39355 z"
         style="font-size:45px;line-height:100%;fill:#000000;fill-opacity:1;stroke:none;stroke-opacity:1"
         id="path4288"
         inkscape:connector-curvature="0" />
    </g>
  </g>
</svg>
